<svg id="visual" viewBox="0 0 900 600" width="900" height="600" xmlns="http://www.w3.org/2000/svg" xmlns:xlink="http://www.w3.org/1999/xlink" version="1.1"><rect x="0" y="0" width="900" height="600" fill="#020f02"></rect><g fill="none" stroke="#283618" stroke-width="4"><path d="M0 -98.2L22 -30.3L93.4 -30.3L35.7 11.6L57.7 79.4L0 37.5L-57.7 79.4L-35.7 11.6L-93.4 -30.3L-22 -30.3Z" transform="translate(324 425)"></path><path d="M0 -43.4L9.7 -13.4L41.3 -13.4L15.8 5.1L25.5 35.1L0 16.6L-25.5 35.1L-15.8 5.1L-41.3 -13.4L-9.7 -13.4Z" transform="translate(418 70)"></path><path d="M0 -72.7L16.3 -22.5L69.1 -22.5L26.4 8.6L42.7 58.8L0 27.8L-42.7 58.8L-26.4 8.6L-69.1 -22.5L-16.3 -22.5Z" transform="translate(514 558)"></path><path d="M0 -79.3L17.8 -24.5L75.4 -24.5L28.8 9.4L46.6 64.1L0 30.3L-46.6 64.1L-28.8 9.4L-75.4 -24.5L-17.8 -24.5Z" transform="translate(55 290)"></path><path d="M0 -63.2L14.2 -19.5L60.1 -19.5L23 7.5L37.2 51.2L0 24.2L-37.2 51.2L-23 7.5L-60.1 -19.5L-14.2 -19.5Z" transform="translate(674 171)"></path><path d="M0 -92.5L20.8 -28.6L88 -28.6L33.6 10.9L54.4 74.8L0 35.3L-54.4 74.8L-33.6 10.9L-88 -28.6L-20.8 -28.6Z" transform="translate(887 38)"></path></g></svg>